<?xml version="1.0" encoding="UTF-8"?>
<svg width="139px" height="44px" viewBox="0 0 139 44" version="1.1" xmlns="http://www.w3.org/2000/svg" xmlns:xlink="http://www.w3.org/1999/xlink">
    <!-- Generator: Sketch 61.2 (89653) - https://sketch.com -->
    <title>ahooks logo</title>
    <desc>Created with Sketch.</desc>
    <g id="页面-1" stroke="none" stroke-width="1" fill="none" fill-rule="evenodd">
        <g id="xx1" fill-rule="nonzero">
            <g id="编组">
                <rect id="矩形" fill="#4569D4" x="0" y="0" width="44.005454" height="44.005454" rx="22.002727"></rect>
                <g transform="translate(13.828899, 20.000000)" fill="#FFFFFF" id="形状">
                    <path d="M9.1384375,0.24171875 L9.1384375,0.24171875 C11.3651042,0.12171875 13.2417708,1.35171875 14.7684375,3.93171875 L14.7684375,3.93171875 C14.5351042,7.09171875 14.1817708,9.25838542 13.7084375,10.4317187 L13.7084375,10.4317187 L14.0584375,11.6617188 C14.1784375,12.3683854 14.5317708,13.0150521 15.1184375,13.6017187 L15.1184375,13.6017187 C15.9384375,14.6550521 16.3484375,15.5917188 16.3484375,16.4117187 L16.3484375,16.4117187 L13.3584375,17.1117188 C12.1851042,16.4117187 11.3651042,15.3583854 10.8984375,13.9517187 L10.8984375,13.9517187 C8.90510417,16.1783854 6.97177083,17.2317187 5.0984375,17.1117188 L5.0984375,17.1117188 C2.05177083,16.7583854 0.351770833,14.9417187 -0.0015625,11.6617188 L-0.0015625,11.6617188 C0.351770833,5.56838542 2.34510417,1.81838542 5.9784375,0.41171875 L5.9784375,0.41171875 C7.26510417,0.0583854167 8.3184375,0.00171875 9.1384375,0.24171875 Z M3.6884375,9.55171875 L3.6884375,9.55171875 L3.8684375,11.6617188 C4.10177083,12.4817187 4.33510417,12.8917187 4.5684375,12.8917187 L4.5684375,12.8917187 L5.7984375,12.8917187 C7.4384375,12.8917187 8.96177083,11.1350521 10.3684375,7.62171875 L10.3684375,7.62171875 L10.8984375,4.81171875 C10.5451042,3.99171875 9.84177083,3.58171875 8.7884375,3.58171875 L8.7884375,3.58171875 L8.6084375,3.58171875 C6.03510417,3.58171875 4.39510417,5.57171875 3.6884375,9.55171875 Z"></path>
                </g>
            </g>
            <g id="编组" transform="translate(48.005454, 6.000000)" fill="#080E29">
                <g id="路径">
                    <path d="M4.22109375,0.00171875 L4.22109375,0.00171875 L5.10109375,1.23171875 L5.10109375,4.22171875 C5.10109375,7.85505208 4.92442708,12.0717188 4.57109375,16.8717187 L4.57109375,16.8717187 L4.57109375,15.1217187 C5.15776042,14.2950521 6.97442708,13.9417187 10.0210938,14.0617188 L10.0210938,14.0617188 C12.8344271,13.8283854 14.0044271,16.2317187 13.5310938,21.2717188 L13.5310938,21.2717188 C12.9510938,24.9050521 13.9477604,27.1317188 16.5210938,27.9517188 L16.5210938,27.9517188 L16.5210938,30.4117187 L14.7610938,30.9417187 C10.7810938,31.0550521 9.02442708,26.9517188 9.49109375,18.6317188 L9.49109375,18.6317188 L9.14109375,18.4617187 C5.62776042,18.4617187 3.87109375,22.6783854 3.87109375,31.1117188 L3.87109375,31.1117188 L2.11109375,31.1117188 C0.704427083,30.6450521 0.00109375,29.4150521 0.00109375,27.4217188 L0.00109375,27.4217188 C0.587760417,27.4217188 1.34776042,19.1583854 2.28109375,2.63171875 L2.28109375,2.63171875 C2.63442708,0.878385417 3.28109375,0.00171875 4.22109375,0.00171875 Z"></path>
                </g>
            </g>
            <g id="编组" transform="translate(68.528892, 19.000000)" fill="#080E29">
                <g id="形状">
                    <path d="M6.6784375,0.88171875 L7.7384375,0.88171875 C12.3051042,1.12171875 14.7651042,4.05171875 15.1184375,9.67171875 L15.1184375,9.67171875 C14.8851042,14.5983854 12.2484375,17.4717188 7.2084375,18.2917188 L7.2084375,18.2917188 C2.52177083,18.2917188 0.1184375,15.4783854 -0.0015625,9.85171875 L-0.0015625,9.85171875 C0.9384375,4.22505208 3.16510417,1.23505208 6.6784375,0.88171875 L6.6784375,0.88171875 Z M4.0384375,8.44171875 L4.0384375,8.44171875 L3.8684375,10.9017188 C3.98177083,13.0150521 5.09510417,14.3050521 7.2084375,14.7717187 L7.2084375,14.7717187 C10.0217708,13.9517188 11.4284375,12.3117188 11.4284375,9.85171875 L11.4284375,9.85171875 C11.8951042,6.68505208 10.5451042,4.86838542 7.3784375,4.40171875 L7.3784375,4.40171875 C5.27177083,4.86838542 4.1584375,6.21505208 4.0384375,8.44171875 Z"></path>
                </g>
            </g>
            <g id="编组" transform="translate(87.646079, 19.000000)" fill="#080E29">
                <g id="形状">
                    <path d="M6.6784375,0.88171875 L7.7384375,0.88171875 C12.3051042,1.12171875 14.7651042,4.05171875 15.1184375,9.67171875 L15.1184375,9.67171875 C14.8851042,14.5983854 12.2484375,17.4717188 7.2084375,18.2917188 L7.2084375,18.2917188 C2.52177083,18.2917188 0.1184375,15.4783854 -0.0015625,9.85171875 L-0.0015625,9.85171875 C0.9384375,4.22505208 3.16510417,1.23505208 6.6784375,0.88171875 L6.6784375,0.88171875 Z M4.0384375,8.44171875 L4.0384375,8.44171875 L3.8684375,10.9017188 C3.98177083,13.0150521 5.09510417,14.3050521 7.2084375,14.7717187 L7.2084375,14.7717187 C10.0217708,13.9517188 11.4284375,12.3117188 11.4284375,9.85171875 L11.4284375,9.85171875 C11.8951042,6.68505208 10.5451042,4.86838542 7.3784375,4.40171875 L7.3784375,4.40171875 C5.27177083,4.86838542 4.1584375,6.21505208 4.0384375,8.44171875 Z"></path>
                </g>
            </g>
            <g id="编组" transform="translate(106.763267, 9.000000)" fill="#080E29">
                <g id="形状">
                    <path d="M3.5153125,1.74171875 L3.5153125,1.74171875 L4.3953125,0.87171875 C5.2153125,0.75171875 6.0353125,0.985052083 6.8553125,1.57171875 L6.8553125,1.57171875 C6.26864583,7.19838542 5.91864583,10.4783854 5.8053125,11.4117187 L5.8053125,11.4117187 C6.6253125,10.8250521 7.56197917,10.5317187 8.6153125,10.5317187 L8.6153125,10.5317187 C12.1286458,11.1183854 13.4753125,12.6417187 12.6553125,15.1017187 L12.6553125,15.1017187 C12.5419792,18.0350521 10.9019792,19.7950521 7.7353125,20.3817187 L7.7353125,20.3817187 L8.0853125,20.9017187 C9.95864583,23.6017187 11.3653125,24.9517187 12.3053125,24.9517187 L12.3053125,24.9517187 C12.7719792,24.9517187 13.1819792,24.9517187 13.5353125,24.9517187 L13.5353125,24.9517187 L14.2353125,24.9517187 C15.1753125,25.5383854 15.6453125,26.1250521 15.6453125,26.7117187 L15.6453125,26.7117187 L15.6453125,27.0617187 C14.8253125,28.3483854 13.7119792,28.9917187 12.3053125,28.9917187 L12.3053125,28.9917187 C10.6653125,29.2250521 7.7353125,26.3550521 3.5153125,20.3817187 L3.5153125,20.3817187 L3.5153125,21.6117187 C3.98197917,21.2583854 3.92197917,23.7183854 3.3353125,28.9917187 L3.3353125,28.9917187 L1.5853125,28.9917187 C0.6453125,28.9917187 0.1753125,28.4650521 0.1753125,27.4117187 L0.1753125,27.4117187 L-0.0046875,26.3517187 C0.9353125,21.6650521 2.10864583,13.4617187 3.5153125,1.74171875 Z M5.0953125,15.8117187 L5.0953125,15.8117187 L4.7453125,17.9217187 C4.7453125,17.9217187 5.33197917,17.9217187 6.5053125,17.9217187 L6.5053125,17.9217187 C8.1453125,17.2150521 9.0253125,16.2183854 9.1453125,14.9317187 L9.1453125,14.9317187 L9.1453125,13.7017187 C9.1453125,13.8150521 8.85197917,13.9317187 8.2653125,14.0517187 L8.2653125,14.0517187 C7.09197917,14.0517187 6.0353125,14.6383854 5.0953125,15.8117187 Z"></path>
                </g>
            </g>
            <g id="编组" transform="translate(126.407798, 19.000000)" fill="#080E29">
                <g id="路径">
                    <path d="M7.03,0.71171875 L7.03,0.71171875 C9.25666667,0.71171875 10.7233333,1.59171875 11.43,3.35171875 L11.43,3.35171875 L11.43,4.58171875 C10.61,4.58171875 9.37666667,4.34505208 7.73,3.87171875 L7.73,3.87171875 L7.56,3.87171875 C6.27333333,4.10505208 5.39333333,4.63505208 4.92,5.46171875 L4.92,5.46171875 L5.45,6.33171875 C9.55,8.79838542 11.6,10.5583854 11.6,11.6117187 L11.6,11.6117187 C11.9533333,12.1983854 12.13,12.7850521 12.13,13.3717187 L12.13,13.3717187 C11.31,17.2383854 9.2,18.8783854 5.8,18.2917188 L5.8,18.2917188 C2.16666667,18.2917188 0.233333333,16.2383854 0,12.1317188 L0,12.1317188 L1.93,11.6117187 C2.99,13.9517187 4.39666667,14.8883854 6.15,14.4217188 L6.15,14.4217188 C7.44333333,14.5417187 8.14666667,14.0150521 8.26,12.8417188 L8.26,12.8417188 C7.20666667,11.4350521 5.89,10.3783854 4.31,9.67171875 C2.72333333,8.97171875 1.87333333,7.68505208 1.76,5.81171875 L1.76,5.81171875 C1.76,2.99838542 3.51666667,1.29838542 7.03,0.71171875 Z"></path>
                </g>
            </g>
        </g>
    </g>
</svg>