<?xml version="1.0" encoding="UTF-8"?>
<svg width="44px" height="44px" viewBox="0 0 44 44" version="1.1" xmlns="http://www.w3.org/2000/svg" xmlns:xlink="http://www.w3.org/1999/xlink">
    <!-- Generator: Sketch 61.2 (89653) - https://sketch.com -->
    <title>ahooks simole logo</title>
    <desc>Created with Sketch.</desc>
    <g id="页面-1" stroke="none" stroke-width="1" fill="none" fill-rule="evenodd">
        <g id="logo" fill-rule="nonzero">
            <g id="编组">
                <rect id="矩形" fill="#4569D4" x="0" y="0" width="44.005454" height="44.005454" rx="22.002727"></rect>
                <g id="形状" transform="translate(13.828899, 20.000000)" fill="#FFFFFF">
                    <path d="M9.1384375,0.24171875 L9.1384375,0.24171875 C11.3651042,0.12171875 13.2417708,1.35171875 14.7684375,3.93171875 L14.7684375,3.93171875 C14.5351042,7.09171875 14.1817708,9.25838542 13.7084375,10.4317187 L13.7084375,10.4317187 L14.0584375,11.6617188 C14.1784375,12.3683854 14.5317708,13.0150521 15.1184375,13.6017187 L15.1184375,13.6017187 C15.9384375,14.6550521 16.3484375,15.5917188 16.3484375,16.4117187 L16.3484375,16.4117187 L13.3584375,17.1117188 C12.1851042,16.4117187 11.3651042,15.3583854 10.8984375,13.9517187 L10.8984375,13.9517187 C8.90510417,16.1783854 6.97177083,17.2317187 5.0984375,17.1117188 L5.0984375,17.1117188 C2.05177083,16.7583854 0.351770833,14.9417187 -0.0015625,11.6617188 L-0.0015625,11.6617188 C0.351770833,5.56838542 2.34510417,1.81838542 5.9784375,0.41171875 L5.9784375,0.41171875 C7.26510417,0.0583854167 8.3184375,0.00171875 9.1384375,0.24171875 Z M3.6884375,9.55171875 L3.6884375,9.55171875 L3.8684375,11.6617188 C4.10177083,12.4817187 4.33510417,12.8917187 4.5684375,12.8917187 L4.5684375,12.8917187 L5.7984375,12.8917187 C7.4384375,12.8917187 8.96177083,11.1350521 10.3684375,7.62171875 L10.3684375,7.62171875 L10.8984375,4.81171875 C10.5451042,3.99171875 9.84177083,3.58171875 8.7884375,3.58171875 L8.7884375,3.58171875 L8.6084375,3.58171875 C6.03510417,3.58171875 4.39510417,5.57171875 3.6884375,9.55171875 Z"></path>
                </g>
            </g>
        </g>
    </g>
</svg>